:SAMPLES-PER-SECOND 30
:FRAME-RANGE 1-2091
:FULLY-SPECIFIED
:DEGREES
1438
root  91.6086 39.2542 7.72609 -0.77887 31.3334 -0.476334
RightUpLeg  -3.44803 -8.18032 -1.87039
RightLeg  16.8089 -9.05435 -0.895624
RightFoot  -12.3572 -0.036768 5.31138
RightToes  5.82063e-011 0 -3.6325e-017
Spine  8.38237 -0.335769 10.7924
Spine1  -0.499473 1.45844 -3.44641
HEad  17.1092 -24.2269 -3.78932
LeftShoulder1  1.22378 0.0744353 -29.6089
LeftArm  17.4548 16.3047 -21.7219
LeftForeArm  -5.86972 -18.0192 -9.31336
LeftHand  0.352361 -0.926769 -6.41492
RightShoulder  4.39815 11.3668 23.3783
RightArm  -42.5238 14.2742 -2.14912
RightForeArm  20.141 5.11188 5.16927
RightHand  -0.204765 -1.36843 -5.76587
LeftUpLeg  -27.2888 18.0191 7.32194
LeftLeg  57.8981 -1.16001 -1.48427
LeftFoot  -6.36084 0.370856 -7.64414
LeftToes  -6.27584e-011 -2.25241e-010 2.80627e-011
1439
root  92.2135 39.4027 8.31132 -0.307556 30.9702 0.203049
RightUpLeg  -1.06688 -8.25946 -2.98358
RightLeg  14.3551 -8.56429 -0.603829
RightFoot  -12.2411 -0.0376197 5.79091
RightToes  5.82063e-011 0 -3.6325e-017
Spine  8.38278 0.181984 9.65015
Spine1  -0.795222 1.73924 -3.76579
HEad  17.3319 -25.3862 -3.87775
LeftShoulder1  1.19775 0.162099 -29.7674
LeftArm  16.0262 17.8598 -22.1806
LeftForeArm  -4.60075 -16.8208 -10.3147
LeftHand  0.361698 -0.864378 -6.65988
RightShoulder  4.40019 10.998 24.1904
RightArm  -39.6304 13.5877 -1.49166
RightForeArm  19.9171 4.49194 5.92947
RightHand  -0.203905 -1.48716 -5.90022
LeftUpLeg  -27.5985 18.3747 6.70765
LeftLeg  49.3479 -1.68643 -1.68312
LeftFoot  -6.65982 0.354003 -7.67722
LeftToes  -6.27584e-011 -2.25241e-010 2.80627e-011
1440
root  92.8231 39.5197 8.88787 0.129395 30.7318 0.540604
RightUpLeg  1.34437 -8.08135 -3.72345
RightLeg  11.4801 -8.4195 -0.393023
RightFoot  -11.8361 -0.0519573 6.58616
RightToes  5.82063e-011 0 -3.6325e-017
Spine  7.94575 0.439892 8.37056
Spine1  -0.661001 1.70296 -3.68922
HEad  17.6226 -26.1809 -3.94329
LeftShoulder1  1.16691 0.287393 -30.209
LeftArm  13.5204 19.2947 -22.4093
LeftForeArm  -2.06738 -14.7262 -11.8985
LeftHand  0.376708 -0.835855 -6.97428
RightShoulder  4.54155 10.9802 25.2551
RightArm  -36.5328 12.7369 -0.614756
RightForeArm  20.2643 3.54584 6.66426
RightHand  -0.202218 -1.3745 -5.69941
LeftUpLeg  -26.9003 19.1986 6.0999
LeftLeg  38.532 -1.84783 -1.21739
LeftFoot  -5.78264 0.450686 -8.55962
LeftToes  -6.27584e-011 -2.25241e-010 2.80627e-011
1441
root  93.4953 39.57 9.45827 0.509033 30.5784 0.505478
RightUpLeg  3.60556 -8.11013 -4.39119
RightLeg  8.76203 -7.97109 0.123072
RightFoot  -11.6114 -0.061722 7.29466
RightToes  5.82063e-011 0 -3.6325e-017
Spine  7.262 0.58534 7.62838
Spine1  -0.350709 1.74741 -4.18135
HEad  17.8399 -27.0623 -3.53106
LeftShoulder1  1.15196 0.308302 -29.9754
LeftArm  10.1335 20.6526 -23.0212
LeftForeArm  1.05909 -12.0957 -13.5353
LeftHand  0.406124 -0.708192 -7.69674
RightShoulder  4.71076 10.6792 27.1942
RightArm  -33.2222 11.479 0.0768713
RightForeArm  20.893 2.50483 7.4372
RightHand  -0.212502 -1.16385 -5.72605
LeftUpLeg  -25.5907 20.695 5.34274
LeftLeg  26.9076 -2.39998 -0.995367
LeftFoot  -3.99651 0.621623 -9.29815
LeftToes  -6.27584e-011 -2.25241e-010 2.80627e-011
1442
root  94.2062 39.5412 10.0125 0.7724 30.2437 0.117813
RightUpLeg  5.36172 -8.14711 -4.85741
RightLeg  6.9508 -7.39147 0.552872
RightFoot  -11.8419 -0.0445955 8.21498
RightToes  5.82063e-011 0 -3.6325e-017
Spine  6.60174 0.700759 6.66603
Spine1  -0.0204519 1.67052 -3.86187
HEad  17.9556 -27.752 -3.37493
LeftShoulder1  1.10515 0.442727 -30.0279
LeftArm  6.9805 22.077 -23.6685
LeftForeArm  3.87977 -9.41997 -14.8647
LeftHand  0.424104 -0.508072 -8.33758
RightShoulder  4.82856 10.2868 29.0525
RightArm  -29.5846 10.5485 0.504944
RightForeArm  21.7118 0.551905 8.30092
RightHand  -0.21583 -0.998097 -5.61815
LeftUpLeg  -24.2669 23.3305 4.35322
LeftLeg  16.0451 -3.01789 -0.664025
LeftFoot  -2.2946 0.810127 -10.0484
LeftToes  -6.27584e-011 -2.25241e-010 2.80627e-011
1443
root  95.0526 39.4144 10.5429 0.731445 30.1107 -0.329391
RightUpLeg  6.95277 -8.26388 -5.4367
RightLeg  6.32248 -6.8875 0.58733
RightFoot  -12.6354 0.0201715 9.37924
RightToes  5.82063e-011 0 -3.6325e-017
Spine  6.23762 0.596511 6.08721
Spine1  0.275204 1.46864 -3.60461
HEad  17.7326 -28.6447 -3.14955
LeftShoulder1  1.07859 0.499578 -29.8234
LeftArm  3.91531 23.517 -24.5305
LeftForeArm  5.13144 -7.10345 -15.7529
LeftHand  0.440711 -0.0312668 -9.49401
RightShoulder  4.84473 9.69506 30.7831
RightArm  -26.718 9.06373 1.11313
RightForeArm  22.6192 -1.35204 8.92268
RightHand  -0.238741 -0.749509 -5.92286
LeftUpLeg  -21.4402 18.7193 7.10545
LeftLeg  7.69224 7.03593 -2.25017
LeftFoot  0.415626 1.12111 -10.8897
LeftToes  -6.27584e-011 -2.25241e-010 2.80627e-011
1444
root  96.0219 39.1786 11.0955 0.286987 30.4214 -0.928329
RightUpLeg  8.62572 -8.35274 -5.96797
RightLeg  6.71482 -6.74882 0.269879
RightFoot  -14.0076 0.160514 10.9641
RightToes  5.82063e-011 0 -3.6325e-017
Spine  5.68224 0.37953 5.46942
Spine1  1.09953 1.04814 -2.66365
HEad  17.2852 -29.6862 -3.07636
LeftShoulder1  1.0859 0.48281 -29.8669
LeftArm  2.13384 24.2292 -25.2254
LeftForeArm  6.68838 -4.70144 -16.5147
LeftHand  0.439839 0.163821 -9.85812
RightShoulder  4.78303 8.83263 32.8713
RightArm  -25.236 7.44298 0.994756
RightForeArm  23.339 -2.91185 9.119
RightHand  -0.260835 -0.313356 -5.96775
LeftUpLeg  -19.4809 16.0611 8.50092
LeftLeg  3.68391 16.8048 -4.20898
LeftFoot  3.05133 1.33692 -10.7122
LeftToes  -6.27584e-011 -2.25241e-010 2.80627e-011
1445
root  97.091 38.9091 11.6372 -0.0314331 31.0351 -1.06694
RightUpLeg  10.3566 -8.83392 -7.27531
RightLeg  7.58304 -6.09364 0.0168161
RightFoot  -15.5185 0.365461 12.8704
RightToes  5.82063e-011 0 -3.6325e-017
Spine  5.4812 0.139007 4.37835
Spine1  1.47679 0.57571 -1.65533
HEad  17.3757 -30.9118 -3.25294
LeftShoulder1  1.1064 0.403267 -29.603
LeftArm  0.476488 24.5406 -25.9267
LeftForeArm  7.78934 -2.61556 -16.9777
LeftHand  0.460707 0.340553 -10.7112
RightShoulder  4.38315 7.35958 34.451
RightArm  -24.7697 5.60587 1.08985
RightForeArm  24.1662 -4.37454 8.85256
RightHand  -0.276932 -0.0971878 -6.10071
LeftUpLeg  -18.9293 16.4579 7.21696
LeftLeg  4.15157 19.969 -4.48012
LeftFoot  7.36946 0.864895 -5.52046
LeftToes  -6.27584e-011 -2.25241e-010 2.80627e-011
1446
root  98.2037 38.7403 12.1491 -0.0950928 31.7551 -0.26857
RightUpLeg  12.1355 -9.41378 -9.45792
RightLeg  8.76589 -5.15745 -0.715254
RightFoot  -16.1288 0.541116 15.4894
RightToes  5.82063e-011 0 -3.6325e-017
Spine  5.94102 -0.125031 2.15942
Spine1  1.35904 0.0245154 -0.584106
HEad  17.5802 -32.0802 -3.69912
LeftShoulder1  1.11771 0.363367 -29.5089
LeftArm  0.249994 24.8356 -26.0798
LeftForeArm  7.60317 -1.98733 -17.1421
LeftHand  0.457605 0.627438 -11.3295
RightShoulder  3.76731 5.58129 35.5682
RightArm  -24.489 3.2646 1.16425
RightForeArm  23.9687 -5.00214 8.62922
RightHand  -0.29308 0.0155902 -6.3329
LeftUpLeg  -19.5863 17.4265 4.51463
LeftLeg  7.5217 17.1011 -3.06196
LeftFoot  11.255 -0.765721 3.48654
LeftToes  -6.27584e-011 -2.25241e-010 2.80627e-011
1447
root  99.3704 38.4901 12.6158 -0.103821 33.4098 1.34299
RightUpLeg  12.6296 -9.72941 -12.4715
RightLeg  13.9458 -4.48142 -1.78833
RightFoot  -16.9744 0.862547 19.7101
RightToes  5.82063e-011 0 -3.6325e-017
Spine  7.51469 -0.454623 -0.432281
Spine1  0.393922 -0.810585 1.24995
HEad  17.9717 -33.7051 -4.1565
LeftShoulder1  1.17248 0.255759 -30.0252
LeftArm  1.04962 23.1617 -25.5462
LeftForeArm  7.01959 -1.24176 -17.4485
LeftHand  0.436718 0.823273 -11.3189
RightShoulder  2.89546 3.32699 36.4962
RightArm  -23.6918 0.383461 1.10811
RightForeArm  23.2726 -4.63651 8.67937
RightHand  -0.32605 0.262756 -6.75889
LeftUpLeg  -22.8093 24.454 -2.3422
LeftLeg  15.7413 6.74229 1.84939
LeftFoot  6.72965 -0.503172 2.90609
LeftToes  -6.27584e-011 -2.25241e-010 2.80627e-011
1448
root  100.439 38.3998 12.9856 0.418579 34.5158 3.05194
RightUpLeg  11.4499 -7.18615 -14.9276
RightLeg  20.4135 -5.33352 -2.40504
RightFoot  -15.6368 0.871751 25.6959
RightToes  5.82063e-011 0 -3.6325e-017
Spine  8.02422 -0.498166 -1.75151
Spine1  0.916035 -0.907217 0.449447
HEad  18.0182 -35.2094 -4.64437
LeftShoulder1  1.29323 -0.0812098 -30.0047
LeftArm  0.0193268 20.3575 -25.6714
LeftForeArm  8.48975 -0.317356 -17.457
LeftHand  0.397831 0.858128 -10.4132
RightShoulder  1.97247 1.05521 37.4128
RightArm  -22.0779 -2.55994 0.939077
RightForeArm  23.5411 -4.13789 8.97403
RightHand  -0.381649 0.348939 -7.79268
LeftUpLeg  -22.3887 23.9723 -4.69322
LeftLeg  18.7565 6.06678 2.60819
LeftFoot  3.8183 -0.450673 3.21194
LeftToes  -6.27584e-011 -2.25241e-010 2.80627e-011
